<svg width="64" height="21" viewBox="0 0 64 21" fill="none" xmlns="http://www.w3.org/2000/svg">
<path d="M33.0993 6.60716C33.0628 9.48602 35.6649 11.0927 37.6251 12.0478C39.6392 13.0279 40.3157 13.6563 40.308 14.5327C40.2926 15.8741 38.7013 16.466 37.2119 16.4891C34.6137 16.5294 33.1031 15.7876 31.902 15.2265L30.9661 19.6063C32.171 20.1617 34.4023 20.646 36.7161 20.6671C42.1471 20.6671 45.7006 17.9862 45.7198 13.8293C45.7409 8.55395 38.4227 8.26183 38.4726 5.90378C38.4899 5.18886 39.1722 4.42591 40.6673 4.2318C41.4072 4.13379 43.4501 4.05884 45.7659 5.12544L46.6749 0.887859C45.4296 0.434313 43.8287 -1.52588e-05 41.8358 -1.52588e-05C36.7238 -1.52588e-05 33.1281 2.71742 33.0993 6.60716ZM55.4095 0.365128C54.4179 0.365128 53.5819 0.943592 53.2091 1.83147L45.4507 20.3558L50.8779 20.3558L51.958 17.3712H58.5901L59.2166 20.3558H64L59.8258 0.365128H55.4095ZM56.1686 5.76541L57.7349 13.272H53.4454L56.1686 5.76541ZM26.519 0.365128L22.2411 20.3558H27.4126L31.6887 0.365128H26.519ZM18.8683 0.365128L13.4853 13.9715L11.3079 2.40224C11.0523 1.11079 10.0434 0.365128 8.92295 0.365128H0.122996L0 0.945513C1.8065 1.33756 3.85899 1.96984 5.1024 2.64631C5.86343 3.0595 6.0806 3.4208 6.33043 4.40285L10.4546 20.3558H15.9202L24.2993 0.365128H18.8683Z" fill="white"/>
</svg>
